<svg width="58" height="30" viewBox="0 0 58 30" fill="none" xmlns="http://www.w3.org/2000/svg">
<path d="M53.4999 29.2501C52.5458 29.252 51.6212 28.9197 50.8866 28.311L28.9999 10.0176L7.07242 27.6576C6.65474 27.9968 6.17415 28.2501 5.65826 28.403C5.14238 28.5558 4.60137 28.6052 4.06634 28.5483C3.53131 28.4914 3.0128 28.3293 2.54061 28.0713C2.06843 27.8133 1.65188 27.4646 1.31492 27.0451C0.975731 26.6275 0.722437 26.1469 0.56959 25.631C0.416744 25.1151 0.367361 24.5741 0.424279 24.0391C0.481198 23.504 0.643295 22.9855 0.901255 22.5133C1.15921 22.0412 1.50795 21.6246 1.92742 21.2876L26.4274 1.56514C27.1581 0.964556 28.0745 0.63623 29.0203 0.63623C29.9661 0.63623 30.8826 0.964556 31.6133 1.56514L56.1133 21.9818C56.5267 22.3246 56.8685 22.7456 57.119 23.2207C57.3696 23.6958 57.5239 24.2156 57.5732 24.7504C57.6225 25.2852 57.5658 25.8245 57.4064 26.3374C57.247 26.8503 56.9879 27.3267 56.6441 27.7393C56.2641 28.2077 55.7851 28.5861 55.2415 28.8474C54.6978 29.1086 54.1031 29.2462 53.4999 29.2501Z" fill="#F2F2F2"/>
</svg>
