<svg width="53" height="53" viewBox="0 0 53 53" fill="none" xmlns="http://www.w3.org/2000/svg">
<g clip-path="url(#clip0_9509_2209)">
<path d="M47.1622 9.83484C47.5935 9.83484 48.0072 10.0062 48.3121 10.3112C48.6171 10.6162 48.7885 11.0298 48.7885 11.4611V40.7342C48.7885 41.1655 48.6171 41.5792 48.3121 41.8842C48.0072 42.1891 47.5935 42.3605 47.1622 42.3605H4.87885C4.44753 42.3605 4.03388 42.1891 3.72889 41.8842C3.4239 41.5792 3.25256 41.1655 3.25256 40.7342V11.4611C3.25256 11.0298 3.4239 10.6162 3.72889 10.3112C4.03388 10.0062 4.44753 9.83484 4.87885 9.83484H47.1622ZM4.87885 6.58228C3.5849 6.58228 2.34394 7.0963 1.42898 8.01126C0.51402 8.92622 0 10.1672 0 11.4611L0 40.7342C0 42.0281 0.51402 43.2691 1.42898 44.1841C2.34394 45.099 3.5849 45.613 4.87885 45.613H47.1622C48.4561 45.613 49.6971 45.099 50.612 44.1841C51.527 43.2691 52.041 42.0281 52.041 40.7342V11.4611C52.041 10.1672 51.527 8.92622 50.612 8.01126C49.6971 7.0963 48.4561 6.58228 47.1622 6.58228H4.87885Z" fill="#343538"/>
<path d="M9.75769 27.7241C9.75769 27.2927 9.92903 26.8791 10.234 26.5741C10.539 26.2691 10.9527 26.0978 11.384 26.0978H40.6571C41.0884 26.0978 41.502 26.2691 41.807 26.5741C42.112 26.8791 42.2833 27.2927 42.2833 27.7241C42.2833 28.1554 42.112 28.569 41.807 28.874C41.502 29.179 41.0884 29.3503 40.6571 29.3503H11.384C10.9527 29.3503 10.539 29.179 10.234 28.874C9.92903 28.569 9.75769 28.1554 9.75769 27.7241ZM9.75769 34.2292C9.75769 33.7979 9.92903 33.3842 10.234 33.0792C10.539 32.7742 10.9527 32.6029 11.384 32.6029H30.8994C31.3307 32.6029 31.7443 32.7742 32.0493 33.0792C32.3543 33.3842 32.5256 33.7979 32.5256 34.2292C32.5256 34.6605 32.3543 35.0742 32.0493 35.3791C31.7443 35.6841 31.3307 35.8555 30.8994 35.8555H11.384C10.9527 35.8555 10.539 35.6841 10.234 35.3791C9.92903 35.0742 9.75769 34.6605 9.75769 34.2292ZM9.75769 17.9664C9.75769 17.5351 9.92903 17.1214 10.234 16.8164C10.539 16.5114 10.9527 16.3401 11.384 16.3401H40.6571C41.0884 16.3401 41.502 16.5114 41.807 16.8164C42.112 17.1214 42.2833 17.5351 42.2833 17.9664V21.2189C42.2833 21.6503 42.112 22.0639 41.807 22.3689C41.502 22.6739 41.0884 22.8452 40.6571 22.8452H11.384C10.9527 22.8452 10.539 22.6739 10.234 22.3689C9.92903 22.0639 9.75769 21.6503 9.75769 21.2189V17.9664Z" fill="#343538"/>
</g>
<defs>
<clipPath id="clip0_9509_2209">
<rect width="52.041" height="52.041" fill="white" transform="translate(0 0.0771484)"/>
</clipPath>
</defs>
</svg>
