<svg width="61" height="46" viewBox="0 0 61 46" fill="none" xmlns="http://www.w3.org/2000/svg">
<path fill-rule="evenodd" clip-rule="evenodd" d="M17.2894 40.8759C17.2894 40.2736 17.5171 39.696 17.9224 39.2701C18.3277 38.8442 18.8774 38.605 19.4506 38.605H58.3516C58.9248 38.605 59.4745 38.8442 59.8798 39.2701C60.2851 39.696 60.5128 40.2736 60.5128 40.8759C60.5128 41.4781 60.2851 42.0557 59.8798 42.4816C59.4745 42.9075 58.9248 43.1467 58.3516 43.1467H19.4506C18.8774 43.1467 18.3277 42.9075 17.9224 42.4816C17.5171 42.0557 17.2894 41.4781 17.2894 40.8759ZM17.2894 22.7088C17.2894 22.1065 17.5171 21.5289 17.9224 21.1031C18.3277 20.6772 18.8774 20.4379 19.4506 20.4379H58.3516C58.9248 20.4379 59.4745 20.6772 59.8798 21.1031C60.2851 21.5289 60.5128 22.1065 60.5128 22.7088C60.5128 23.3111 60.2851 23.8887 59.8798 24.3146C59.4745 24.7404 58.9248 24.9797 58.3516 24.9797H19.4506C18.8774 24.9797 18.3277 24.7404 17.9224 24.3146C17.5171 23.8887 17.2894 23.3111 17.2894 22.7088ZM17.2894 4.54176C17.2894 3.93949 17.5171 3.36188 17.9224 2.93601C18.3277 2.51013 18.8774 2.27088 19.4506 2.27088H58.3516C58.9248 2.27088 59.4745 2.51013 59.8798 2.93601C60.2851 3.36188 60.5128 3.93949 60.5128 4.54176C60.5128 5.14404 60.2851 5.72164 59.8798 6.14752C59.4745 6.57339 58.9248 6.81264 58.3516 6.81264H19.4506C18.8774 6.81264 18.3277 6.57339 17.9224 6.14752C17.5171 5.72164 17.2894 5.14404 17.2894 4.54176ZM4.32234 9.08352C5.4687 9.08352 6.56811 8.60502 7.3787 7.75327C8.1893 6.90153 8.64469 5.74631 8.64469 4.54176C8.64469 3.33721 8.1893 2.182 7.3787 1.33025C6.56811 0.478506 5.4687 0 4.32234 0C3.17599 0 2.07658 0.478506 1.26599 1.33025C0.455388 2.182 0 3.33721 0 4.54176C0 5.74631 0.455388 6.90153 1.26599 7.75327C2.07658 8.60502 3.17599 9.08352 4.32234 9.08352ZM4.32234 27.2506C5.4687 27.2506 6.56811 26.7721 7.3787 25.9203C8.1893 25.0686 8.64469 23.9134 8.64469 22.7088C8.64469 21.5043 8.1893 20.349 7.3787 19.4973C6.56811 18.6456 5.4687 18.167 4.32234 18.167C3.17599 18.167 2.07658 18.6456 1.26599 19.4973C0.455388 20.349 0 21.5043 0 22.7088C0 23.9134 0.455388 25.0686 1.26599 25.9203C2.07658 26.7721 3.17599 27.2506 4.32234 27.2506ZM4.32234 45.4176C5.4687 45.4176 6.56811 44.9391 7.3787 44.0874C8.1893 43.2356 8.64469 42.0804 8.64469 40.8759C8.64469 39.6713 8.1893 38.5161 7.3787 37.6644C6.56811 36.8126 5.4687 36.3341 4.32234 36.3341C3.17599 36.3341 2.07658 36.8126 1.26599 37.6644C0.455388 38.5161 0 39.6713 0 40.8759C0 42.0804 0.455388 43.2356 1.26599 44.0874C2.07658 44.9391 3.17599 45.4176 4.32234 45.4176Z" fill="#343538"/>
</svg>
