<svg width="47" height="47" viewBox="0 0 47 47" fill="none" xmlns="http://www.w3.org/2000/svg">
<path d="M15.4219 23.5C17.5643 23.5 19.619 22.6489 21.134 21.134C22.6489 19.619 23.5 17.5643 23.5 15.4219C23.5 13.2794 22.6489 11.2247 21.134 9.70978C19.619 8.19484 17.5643 7.34375 15.4219 7.34375C13.2794 7.34375 11.2247 8.19484 9.70978 9.70978C8.19484 11.2247 7.34375 13.2794 7.34375 15.4219C7.34375 17.5643 8.19484 19.619 9.70978 21.134C11.2247 22.6489 13.2794 23.5 15.4219 23.5V23.5ZM33.7812 23.5C35.3394 23.5 36.8337 22.881 37.9355 21.7793C39.0373 20.6775 39.6562 19.1831 39.6562 17.625C39.6562 16.0669 39.0373 14.5725 37.9355 13.4707C36.8337 12.369 35.3394 11.75 33.7812 11.75C32.2231 11.75 30.7288 12.369 29.627 13.4707C28.5252 14.5725 27.9062 16.0669 27.9062 17.625C27.9062 19.1831 28.5252 20.6775 29.627 21.7793C30.7288 22.881 32.2231 23.5 33.7812 23.5ZM7.34375 26.4375C6.17514 26.4375 5.05439 26.9017 4.22806 27.7281C3.40173 28.5544 2.9375 29.6751 2.9375 30.8438V31.0641C2.9375 31.0641 2.9375 39.6562 15.4219 39.6562C27.9062 39.6562 27.9062 31.0641 27.9062 31.0641V30.8438C27.9062 29.6751 27.442 28.5544 26.6157 27.7281C25.7894 26.9017 24.6686 26.4375 23.5 26.4375H7.34375ZM33.7812 36.7188C31.6428 36.7188 29.9508 36.4279 28.6098 35.9653C29.2443 34.9372 29.6085 33.9457 29.8142 33.1453C29.9641 32.57 30.059 31.9819 30.0976 31.3887C30.1006 31.3299 30.1035 31.277 30.1035 31.2315L30.105 31.1698V30.8438C30.1075 29.2178 29.5085 27.6483 28.4232 26.4375H40.5272C40.9914 26.4373 41.4511 26.5286 41.88 26.7061C42.3089 26.8836 42.6986 27.1438 43.027 27.472C43.3553 27.8002 43.6157 28.1898 43.7934 28.6186C43.971 29.0475 44.0625 29.5071 44.0625 29.9713C44.0625 29.9713 44.0625 36.7188 33.7812 36.7188Z" fill="#FE7890"/>
</svg>
