<svg width="75" height="75" viewBox="0 0 75 75" fill="none" xmlns="http://www.w3.org/2000/svg">
<circle cx="37.5" cy="37.5" r="37.5" fill="#FE7890"/>
<path d="M53.6914 48.6002C52.7644 47.7123 51.8622 46.7989 50.9858 45.8611C50.2496 45.1129 49.8062 44.5687 49.8062 44.5687L44.2646 41.9225C46.4832 39.4063 47.7077 36.1671 47.7083 32.8124C47.7083 25.1748 41.4937 18.9583 33.8542 18.9583C26.2146 18.9583 20 25.1748 20 32.8124C20 40.45 26.2146 46.6666 33.8542 46.6666C37.3434 46.6666 40.524 45.3603 42.9643 43.2248L45.6104 48.7665C45.6104 48.7665 46.1547 49.2098 46.9028 49.9461C47.6688 50.6645 48.6761 51.6363 49.642 52.6516L52.3297 55.4066L53.5251 56.6851L57.7229 52.4873L56.4444 51.2919C55.6943 50.5556 54.6928 49.5779 53.6914 48.6002V48.6002ZM33.8542 42.7083C28.3976 42.7083 23.9583 38.269 23.9583 32.8124C23.9583 27.3559 28.3976 22.9166 33.8542 22.9166C39.3107 22.9166 43.75 27.3559 43.75 32.8124C43.75 38.269 39.3107 42.7083 33.8542 42.7083Z" fill="#F2F2F2"/>
</svg>
